<svg xmlns="http://www.w3.org/2000/svg" x="0px" y="0px" width="100" height="100" viewBox="0 0 100 100">
<path fill="#ee3e54" d="M13,27c-1.105,0-2,0.895-2,2s0.895,2,2,2s2-0.895,2-2S14.105,27,13,27z"></path><path fill="#f1bc19" d="M77,12c-0.552,0-1,0.448-1,1s0.448,1,1,1s1-0.448,1-1S77.552,12,77,12z"></path><path fill="#fce0a2" d="M50,13c-20.435,0-37,16.565-37,37s16.565,37,37,37s37-16.565,37-37S70.435,13,50,13z"></path><path fill="#f1bc19" d="M83,11c-2.209,0-4,1.791-4,4s1.791,4,4,4s4-1.791,4-4S85.209,11,83,11z"></path><path fill="#ee3e54" d="M87,22c-1.105,0-2,0.895-2,2s0.895,2,2,2s2-0.895,2-2S88.105,22,87,22z"></path><path fill="#fbcd59" d="M81,74c-1.105,0-2,0.895-2,2s0.895,2,2,2s2-0.895,2-2S82.105,74,81,74z M15,59c-2.209,0-4,1.791-4,4	s1.791,4,4,4s4-1.791,4-4S17.209,59,15,59z"></path><path fill="#ee3e54" d="M25,85c-1.105,0-2,0.895-2,2s0.895,2,2,2s2-0.895,2-2S26.105,85,25,85z"></path><path fill="#fff" d="M18.5,51c-1.381,0-2.5,1.119-2.5,2.5s1.119,2.5,2.5,2.5s2.5-1.119,2.5-2.5S19.881,51,18.5,51z"></path><path fill="#f1bc19" d="M21,66c-0.552,0-1,0.448-1,1s0.448,1,1,1s1-0.448,1-1S21.552,66,21,66z"></path><path fill="#fff" d="M80,33c-0.552,0-1,0.448-1,1s0.448,1,1,1s1-0.448,1-1S80.552,33,80,33z"></path><path fill="#eeecd9" d="M35,72.3c-4.025,0-7.3-3.274-7.3-7.3V35c0-4.025,3.274-7.3,7.3-7.3h30c4.025,0,7.3,3.274,7.3,7.3v30 c0,4.025-3.274,7.3-7.3,7.3H35z"></path><path fill="#88ae45" d="M44.957,44.872H27.7V34.521c0-3.638,2.949-6.588,6.588-6.588h10.67V44.872z"></path><path fill="#ee3e54" d="M44.957,72.161h-9.665c-4.193,0-7.592-3.399-7.592-7.592v-9.347h17.257V72.161z"></path><path fill="#83ccb7" d="M65.167,72.161H55.047V55.222h17.257v9.802C72.304,68.966,69.109,72.161,65.167,72.161z"></path><path fill="#f1bc19" d="M55.047,44.872h17.257V34.521c0-3.638-2.949-6.588-6.587-6.588h-10.67V44.872z"></path><path fill="#472b29" d="M65,28.4c3.639,0,6.6,2.961,6.6,6.6v30c0,3.639-2.961,6.6-6.6,6.6H35c-3.639,0-6.6-2.961-6.6-6.6V35 c0-3.639,2.961-6.6,6.6-6.6H65 M65,27H35c-4.4,0-8,3.6-8,8v30c0,4.4,3.6,8,8,8h30c4.4,0,8-3.6,8-8V35C73,30.6,69.4,27,65,27L65,27z"></path><path fill="#fefdef" stroke="#472b29" stroke-miterlimit="10" stroke-width=".5" d="M39.281,30.324h-5.912 c-1.681,0-3.044,1.363-3.044,3.044v5.912c0,1.681,1.363,3.044,3.044,3.044h5.912c1.681,0,3.044-1.363,3.044-3.044v-5.912 C42.324,31.687,40.962,30.324,39.281,30.324z M33.824,40.324c-0.828,0-1.5-0.672-1.5-1.5s0.672-1.5,1.5-1.5s1.5,0.672,1.5,1.5 S34.653,40.324,33.824,40.324z M33.824,35.324c-0.828,0-1.5-0.672-1.5-1.5s0.672-1.5,1.5-1.5s1.5,0.672,1.5,1.5 S34.653,35.324,33.824,35.324z M38.824,40.324c-0.828,0-1.5-0.672-1.5-1.5s0.672-1.5,1.5-1.5s1.5,0.672,1.5,1.5 S39.653,40.324,38.824,40.324z M38.824,35.324c-0.828,0-1.5-0.672-1.5-1.5s0.672-1.5,1.5-1.5s1.5,0.672,1.5,1.5 S39.653,35.324,38.824,35.324z"></path><path fill="#fefdef" stroke="#472b29" stroke-miterlimit="10" stroke-width=".5" d="M66.632,30.324H60.72 c-1.681,0-3.044,1.363-3.044,3.044v5.912c0,1.681,1.363,3.044,3.044,3.044h5.912c1.681,0,3.044-1.363,3.044-3.044v-5.912 C69.676,31.687,68.313,30.324,66.632,30.324z M61.176,40.324c-0.828,0-1.5-0.672-1.5-1.5s0.672-1.5,1.5-1.5 c0.828,0,1.5,0.672,1.5,1.5S62.004,40.324,61.176,40.324z M61.176,35.324c-0.828,0-1.5-0.672-1.5-1.5s0.672-1.5,1.5-1.5 c0.828,0,1.5,0.672,1.5,1.5S62.004,35.324,61.176,35.324z M66.176,40.324c-0.828,0-1.5-0.672-1.5-1.5s0.672-1.5,1.5-1.5 c0.828,0,1.5,0.672,1.5,1.5S67.004,40.324,66.176,40.324z M66.176,35.324c-0.828,0-1.5-0.672-1.5-1.5s0.672-1.5,1.5-1.5 c0.828,0,1.5,0.672,1.5,1.5S67.004,35.324,66.176,35.324z"></path><path fill="#fefdef" stroke="#472b29" stroke-miterlimit="10" stroke-width=".5" d="M39.243,57.713h-5.912 c-1.681,0-3.044,1.363-3.044,3.044v5.912c0,1.681,1.363,3.044,3.044,3.044h5.912c1.681,0,3.044-1.363,3.044-3.044v-5.912 C42.287,59.076,40.924,57.713,39.243,57.713z M33.787,67.713c-0.828,0-1.5-0.672-1.5-1.5s0.672-1.5,1.5-1.5s1.5,0.672,1.5,1.5 S34.616,67.713,33.787,67.713z M33.787,62.713c-0.828,0-1.5-0.672-1.5-1.5s0.672-1.5,1.5-1.5s1.5,0.672,1.5,1.5 S34.616,62.713,33.787,62.713z M38.787,67.713c-0.828,0-1.5-0.672-1.5-1.5s0.672-1.5,1.5-1.5s1.5,0.672,1.5,1.5 S39.616,67.713,38.787,67.713z M38.787,62.713c-0.828,0-1.5-0.672-1.5-1.5s0.672-1.5,1.5-1.5s1.5,0.672,1.5,1.5 S39.616,62.713,38.787,62.713z"></path><path fill="#fefdef" stroke="#472b29" stroke-miterlimit="10" stroke-width=".5" d="M66.648,57.691h-5.912 c-1.681,0-3.044,1.363-3.044,3.044v5.912c0,1.681,1.363,3.044,3.044,3.044h5.912c1.681,0,3.044-1.363,3.044-3.044v-5.912 C69.691,59.054,68.329,57.691,66.648,57.691z M61.191,67.691c-0.828,0-1.5-0.672-1.5-1.5s0.672-1.5,1.5-1.5 c0.828,0,1.5,0.672,1.5,1.5S62.02,67.691,61.191,67.691z M61.191,62.691c-0.828,0-1.5-0.672-1.5-1.5s0.672-1.5,1.5-1.5 c0.828,0,1.5,0.672,1.5,1.5S62.02,62.691,61.191,62.691z M66.191,67.691c-0.828,0-1.5-0.672-1.5-1.5s0.672-1.5,1.5-1.5 c0.828,0,1.5,0.672,1.5,1.5S67.02,67.691,66.191,67.691z M66.191,62.691c-0.828,0-1.5-0.672-1.5-1.5s0.672-1.5,1.5-1.5 c0.828,0,1.5,0.672,1.5,1.5S67.02,62.691,66.191,62.691z"></path><rect width="3.064" height="3.064" x="48.383" y="30.085" fill="#f1bc19" stroke="#472b29" stroke-linecap="round" stroke-linejoin="round" stroke-miterlimit="10" stroke-width=".25"></rect><rect width="3.064" height="3.064" x="48.383" y="33.149" fill="#f1bc19" stroke="#472b29" stroke-linecap="round" stroke-linejoin="round" stroke-miterlimit="10" stroke-width=".25"></rect><rect width="3.064" height="3.064" x="48.383" y="36.213" fill="#f1bc19" stroke="#472b29" stroke-linecap="round" stroke-linejoin="round" stroke-miterlimit="10" stroke-width=".25"></rect><rect width="3.064" height="3.064" x="48.383" y="39.277" fill="#f1bc19" stroke="#472b29" stroke-linecap="round" stroke-linejoin="round" stroke-miterlimit="10" stroke-width=".25"></rect><rect width="3.064" height="3.064" x="48.383" y="42.34" fill="#f1bc19" stroke="#472b29" stroke-linecap="round" stroke-linejoin="round" stroke-miterlimit="10" stroke-width=".25"></rect><rect width="3.064" height="3.064" x="48.383" y="45.404" fill="#f1bc19" stroke="#472b29" stroke-linecap="round" stroke-linejoin="round" stroke-miterlimit="10" stroke-width=".25"></rect><rect width="3.064" height="3.064" x="48.383" y="48.468" fill="#88ae45" stroke="#472b29" stroke-linecap="round" stroke-linejoin="round" stroke-miterlimit="10" stroke-width=".25"></rect><rect width="3.064" height="3.064" x="48.383" y="51.532" fill="#ee3e54" stroke="#472b29" stroke-linecap="round" stroke-linejoin="round" stroke-miterlimit="10" stroke-width=".25"></rect><rect width="3.064" height="3.064" x="48.383" y="54.596" fill="#ee3e54" stroke="#472b29" stroke-linecap="round" stroke-linejoin="round" stroke-miterlimit="10" stroke-width=".25"></rect><rect width="3.064" height="3.064" x="48.383" y="57.66" fill="#ee3e54" stroke="#472b29" stroke-linecap="round" stroke-linejoin="round" stroke-miterlimit="10" stroke-width=".25"></rect><rect width="3.064" height="3.064" x="48.383" y="63.787" fill="#ee3e54" stroke="#472b29" stroke-linecap="round" stroke-linejoin="round" stroke-miterlimit="10" stroke-width=".25"></rect><rect width="3.064" height="3.064" x="48.383" y="66.851" fill="#ee3e54" stroke="#472b29" stroke-linecap="round" stroke-linejoin="round" stroke-miterlimit="10" stroke-width=".25"></rect><polyline fill="none" stroke="#472b29" stroke-linecap="round" stroke-linejoin="round" stroke-miterlimit="10" stroke-width=".25" points="48.383,71.984 48.383,69.915 51.447,69.915 51.447,72.128"></polyline><rect width="3.064" height="3.064" x="51.447" y="30.085" fill="#f1bc19" stroke="#472b29" stroke-linecap="round" stroke-linejoin="round" stroke-miterlimit="10" stroke-width=".25"></rect><polyline fill="none" stroke="#472b29" stroke-linecap="round" stroke-linejoin="round" stroke-miterlimit="10" stroke-width=".25" points="54.511,27.934 54.511,30.085 51.447,30.085 51.447,28.069"></polyline><rect width="3.064" height="3.064" x="51.447" y="33.149" fill="none" stroke="#472b29" stroke-linecap="round" stroke-linejoin="round" stroke-miterlimit="10" stroke-width=".25"></rect><rect width="3.064" height="3.064" x="51.447" y="36.213" fill="none" stroke="#472b29" stroke-linecap="round" stroke-linejoin="round" stroke-miterlimit="10" stroke-width=".25"></rect><rect width="3.064" height="3.064" x="51.447" y="39.277" fill="none" stroke="#472b29" stroke-linecap="round" stroke-linejoin="round" stroke-miterlimit="10" stroke-width=".25"></rect><rect width="3.064" height="3.064" x="51.447" y="42.34" fill="none" stroke="#472b29" stroke-linecap="round" stroke-linejoin="round" stroke-miterlimit="10" stroke-width=".25"></rect><rect width="3.064" height="3.064" x="51.447" y="45.404" fill="none" stroke="#472b29" stroke-linecap="round" stroke-linejoin="round" stroke-miterlimit="10" stroke-width=".25"></rect><rect width="3.064" height="3.064" x="51.447" y="48.468" fill="#83ccb7" stroke="#472b29" stroke-linecap="round" stroke-linejoin="round" stroke-miterlimit="10" stroke-width=".25"></rect><rect width="3.064" height="3.064" x="51.447" y="51.532" fill="none" stroke="#472b29" stroke-linecap="round" stroke-linejoin="round" stroke-miterlimit="10" stroke-width=".25"></rect><rect width="3.064" height="3.064" x="51.447" y="54.596" fill="none" stroke="#472b29" stroke-linecap="round" stroke-linejoin="round" stroke-miterlimit="10" stroke-width=".25"></rect><rect width="3.064" height="3.064" x="51.447" y="57.66" fill="none" stroke="#472b29" stroke-linecap="round" stroke-linejoin="round" stroke-miterlimit="10" stroke-width=".25"></rect><rect width="3.064" height="3.064" x="51.447" y="60.723" fill="none" stroke="#472b29" stroke-linecap="round" stroke-linejoin="round" stroke-miterlimit="10" stroke-width=".25"></rect><rect width="3.064" height="3.064" x="51.447" y="63.787" fill="none" stroke="#472b29" stroke-linecap="round" stroke-linejoin="round" stroke-miterlimit="10" stroke-width=".25"></rect><rect width="3.064" height="3.064" x="51.447" y="66.851" fill="none" stroke="#472b29" stroke-linecap="round" stroke-linejoin="round" stroke-miterlimit="10" stroke-width=".25"></rect><polyline fill="none" stroke="#472b29" stroke-linecap="round" stroke-linejoin="round" stroke-miterlimit="10" stroke-width=".25" points="51.447,72.128 51.447,69.915 54.511,69.915 54.511,72.128"></polyline><rect width="3.064" height="3.064" x="45.319" y="30.085" fill="none" stroke="#472b29" stroke-linecap="round" stroke-linejoin="round" stroke-miterlimit="10" stroke-width=".25"></rect><polyline fill="none" stroke="#472b29" stroke-linecap="round" stroke-linejoin="round" stroke-miterlimit="10" stroke-width=".25" points="48.383,27.878 48.383,30.085 45.319,30.085 45.319,27.838"></polyline><rect width="3.064" height="3.064" x="45.319" y="33.149" fill="none" stroke="#472b29" stroke-linecap="round" stroke-linejoin="round" stroke-miterlimit="10" stroke-width=".25"></rect><rect width="3.064" height="3.064" x="45.319" y="36.213" fill="none" stroke="#472b29" stroke-linecap="round" stroke-linejoin="round" stroke-miterlimit="10" stroke-width=".25"></rect><rect width="3.064" height="3.064" x="45.319" y="39.277" fill="none" stroke="#472b29" stroke-linecap="round" stroke-linejoin="round" stroke-miterlimit="10" stroke-width=".25"></rect><rect width="3.064" height="3.064" x="45.319" y="42.34" fill="none" stroke="#472b29" stroke-linecap="round" stroke-linejoin="round" stroke-miterlimit="10" stroke-width=".25"></rect><rect width="3.064" height="3.064" x="45.319" y="45.404" fill="none" stroke="#472b29" stroke-linecap="round" stroke-linejoin="round" stroke-miterlimit="10" stroke-width=".25"></rect><rect width="3.064" height="3.064" x="45.319" y="48.468" fill="#88ae45" stroke="#472b29" stroke-linecap="round" stroke-linejoin="round" stroke-miterlimit="10" stroke-width=".25"></rect><rect width="3.064" height="3.064" x="45.319" y="54.596" fill="none" stroke="#472b29" stroke-linecap="round" stroke-linejoin="round" stroke-miterlimit="10" stroke-width=".25"></rect><rect width="3.064" height="3.064" x="45.319" y="57.66" fill="none" stroke="#472b29" stroke-linecap="round" stroke-linejoin="round" stroke-miterlimit="10" stroke-width=".25"></rect><rect width="3.064" height="3.064" x="45.319" y="60.723" fill="none" stroke="#472b29" stroke-linecap="round" stroke-linejoin="round" stroke-miterlimit="10" stroke-width=".25"></rect><rect width="3.064" height="3.064" x="45.319" y="63.787" fill="none" stroke="#472b29" stroke-linecap="round" stroke-linejoin="round" stroke-miterlimit="10" stroke-width=".25"></rect><rect width="3.064" height="3.064" x="45.319" y="66.851" fill="#ee3e54" stroke="#472b29" stroke-linecap="round" stroke-linejoin="round" stroke-miterlimit="10" stroke-width=".25"></rect><polyline fill="none" stroke="#472b29" stroke-linecap="round" stroke-linejoin="round" stroke-miterlimit="10" stroke-width=".25" points="45.319,72.128 45.319,69.915 48.383,69.915 48.383,71.984"></polyline><rect width="3.064" height="3.064" x="42.255" y="45.404" fill="none" stroke="#472b29" stroke-linecap="round" stroke-linejoin="round" stroke-miterlimit="10" stroke-width=".25"></rect><rect width="3.064" height="3.064" x="42.255" y="48.468" fill="#88ae45" stroke="#472b29" stroke-linecap="round" stroke-linejoin="round" stroke-miterlimit="10" stroke-width=".25"></rect><rect width="3.064" height="3.064" x="42.255" y="51.532" fill="none" stroke="#472b29" stroke-linecap="round" stroke-linejoin="round" stroke-miterlimit="10" stroke-width=".25"></rect><rect width="3.064" height="3.064" x="39.191" y="45.404" fill="none" stroke="#472b29" stroke-linecap="round" stroke-linejoin="round" stroke-miterlimit="10" stroke-width=".25"></rect><rect width="3.064" height="3.064" x="39.191" y="48.468" fill="#88ae45" stroke="#472b29" stroke-linecap="round" stroke-linejoin="round" stroke-miterlimit="10" stroke-width=".25"></rect><rect width="3.064" height="3.064" x="39.191" y="51.532" fill="none" stroke="#472b29" stroke-linecap="round" stroke-linejoin="round" stroke-miterlimit="10" stroke-width=".25"></rect><rect width="3.064" height="3.064" x="36.128" y="45.404" fill="none" stroke="#472b29" stroke-linecap="round" stroke-linejoin="round" stroke-miterlimit="10" stroke-width=".25"></rect><rect width="3.064" height="3.064" x="36.128" y="48.468" fill="#88ae45" stroke="#472b29" stroke-linecap="round" stroke-linejoin="round" stroke-miterlimit="10" stroke-width=".25"></rect><rect width="3.064" height="3.064" x="36.128" y="51.532" fill="none" stroke="#472b29" stroke-linecap="round" stroke-linejoin="round" stroke-miterlimit="10" stroke-width=".25"></rect><rect width="3.064" height="3.064" x="33.064" y="45.404" fill="none" stroke="#472b29" stroke-linecap="round" stroke-linejoin="round" stroke-miterlimit="10" stroke-width=".25"></rect><rect width="3.064" height="3.064" x="33.064" y="48.468" fill="#88ae45" stroke="#472b29" stroke-linecap="round" stroke-linejoin="round" stroke-miterlimit="10" stroke-width=".25"></rect><rect width="3.064" height="3.064" x="33.064" y="51.532" fill="none" stroke="#472b29" stroke-linecap="round" stroke-linejoin="round" stroke-miterlimit="10" stroke-width=".25"></rect><rect width="3.064" height="3.064" x="30" y="45.404" fill="#88ae45" stroke="#472b29" stroke-linecap="round" stroke-linejoin="round" stroke-miterlimit="10" stroke-width=".25"></rect><rect width="3.064" height="3.064" x="30" y="48.468" fill="#88ae45" stroke="#472b29" stroke-linecap="round" stroke-linejoin="round" stroke-miterlimit="10" stroke-width=".25"></rect><rect width="3.064" height="3.064" x="30" y="51.532" fill="none" stroke="#472b29" stroke-linecap="round" stroke-linejoin="round" stroke-miterlimit="10" stroke-width=".25"></rect><polyline fill="none" stroke="#472b29" stroke-linecap="round" stroke-linejoin="round" stroke-miterlimit="10" stroke-width=".25" points="27.819,45.404 30,45.404 30,48.468 27.777,48.468"></polyline><polyline fill="none" stroke="#472b29" stroke-linecap="round" stroke-linejoin="round" stroke-miterlimit="10" stroke-width=".25" points="27.7,48.468 30,48.468 30,51.532 27.926,51.532"></polyline><polyline fill="none" stroke="#472b29" stroke-linecap="round" stroke-linejoin="round" stroke-miterlimit="10" stroke-width=".25" points="27.649,51.532 30,51.532 30,54.596 27.968,54.596"></polyline><rect width="3.064" height="3.064" x="57.564" y="45.404" fill="none" stroke="#472b29" stroke-linecap="round" stroke-linejoin="round" stroke-miterlimit="10" stroke-width=".25"></rect><rect width="3.064" height="3.064" x="57.564" y="48.468" fill="#83ccb7" stroke="#472b29" stroke-linecap="round" stroke-linejoin="round" stroke-miterlimit="10" stroke-width=".25"></rect><rect width="3.064" height="3.064" x="57.564" y="51.532" fill="none" stroke="#472b29" stroke-linecap="round" stroke-linejoin="round" stroke-miterlimit="10" stroke-width=".25"></rect><rect width="3.064" height="3.064" x="60.628" y="45.404" fill="none" stroke="#472b29" stroke-linecap="round" stroke-linejoin="round" stroke-miterlimit="10" stroke-width=".25"></rect><rect width="3.064" height="3.064" x="60.628" y="48.468" fill="#83ccb7" stroke="#472b29" stroke-linecap="round" stroke-linejoin="round" stroke-miterlimit="10" stroke-width=".25"></rect><rect width="3.064" height="3.064" x="60.628" y="51.532" fill="none" stroke="#472b29" stroke-linecap="round" stroke-linejoin="round" stroke-miterlimit="10" stroke-width=".25"></rect><rect width="3.064" height="3.064" x="54.5" y="45.404" fill="none" stroke="#472b29" stroke-linecap="round" stroke-linejoin="round" stroke-miterlimit="10" stroke-width=".25"></rect><rect width="3.064" height="3.064" x="54.5" y="48.468" fill="#83ccb7" stroke="#472b29" stroke-linecap="round" stroke-linejoin="round" stroke-miterlimit="10" stroke-width=".25"></rect><rect width="3.064" height="3.064" x="54.5" y="51.532" fill="none" stroke="#472b29" stroke-linecap="round" stroke-linejoin="round" stroke-miterlimit="10" stroke-width=".25"></rect><rect width="3.064" height="3.064" x="66.745" y="48.468" fill="#83ccb7" stroke="#472b29" stroke-linecap="round" stroke-linejoin="round" stroke-miterlimit="10" stroke-width=".25"></rect><rect width="3.064" height="3.064" x="66.745" y="51.532" fill="#83ccb7" stroke="#472b29" stroke-linecap="round" stroke-linejoin="round" stroke-miterlimit="10" stroke-width=".25"></rect><rect width="3.064" height="3.064" x="69.809" y="45.404" fill="none" stroke="#472b29" stroke-linecap="round" stroke-linejoin="round" stroke-miterlimit="10" stroke-width=".25"></rect><rect width="3.064" height="3.064" x="69.809" y="51.532" fill="none" stroke="#472b29" stroke-linecap="round" stroke-linejoin="round" stroke-miterlimit="10" stroke-width=".25"></rect><rect width="3.064" height="3.064" x="63.681" y="45.404" fill="none" stroke="#472b29" stroke-linecap="round" stroke-linejoin="round" stroke-miterlimit="10" stroke-width=".25"></rect><rect width="3.064" height="3.064" x="66.745" y="45.404" fill="none" stroke="#472b29" stroke-linecap="round" stroke-linejoin="round" stroke-miterlimit="10" stroke-width=".25"></rect><rect width="3.064" height="3.064" x="63.681" y="48.468" fill="#83ccb7" stroke="#472b29" stroke-linecap="round" stroke-linejoin="round" stroke-miterlimit="10" stroke-width=".25"></rect><rect width="3.064" height="3.064" x="63.681" y="51.532" fill="none" stroke="#472b29" stroke-linecap="round" stroke-linejoin="round" stroke-miterlimit="10" stroke-width=".25"></rect><polyline fill="none" stroke="#472b29" stroke-linecap="round" stroke-linejoin="round" stroke-miterlimit="10" points="54.883,72.5 54.883,54.883 72.5,54.883"></polyline><polyline fill="none" stroke="#472b29" stroke-linecap="round" stroke-linejoin="round" stroke-miterlimit="10" points="27.5,54.926 45.074,54.926 45.074,72.5"></polyline><polyline fill="none" stroke="#472b29" stroke-linecap="round" stroke-linejoin="round" stroke-miterlimit="10" points="45.149,27.5 45.149,45.149 27.5,45.149"></polyline><polyline fill="none" stroke="#472b29" stroke-linecap="round" stroke-linejoin="round" stroke-miterlimit="10" points="72.5,45.149 54.851,45.149 54.851,27.5"></polyline><rect width="3.064" height="3.064" x="48.383" y="60.723" fill="#ee3e54" stroke="#472b29" stroke-linecap="round" stroke-linejoin="round" stroke-miterlimit="10" stroke-width=".25"></rect><rect width="3.064" height="3.064" x="45.319" y="51.532" fill="none" stroke="#472b29" stroke-linecap="round" stroke-linejoin="round" stroke-miterlimit="10" stroke-width=".25"></rect><path fill="#4e82b5" d="M61.611,50c0-0.405-0.077-0.788-0.168-1.163c0,0-1.01-3.949-1.011-3.953	c-0.298-1.166-1.065-2.245-2.205-2.722c0,0-9.149-3.824-9.15-3.825c-0.485-0.203-1.016-0.347-1.544-0.347	c-1.327,0-2.481,0.704-3.146,1.75c0,0-5.532,8.441-5.539,8.452c0,0-0.057,0.087-0.048,0.088c-0.363,0.572-0.581,1.247-0.581,1.975	c0,0.865,0.373,1.603,0.797,2.294c0,0,1.668,3.135,1.686,3.133c0.078,0.137,0.218,0.374,0.462,0.691	c0.685,0.891,1.596,1.578,2.614,2.054c2.392,1.119,7.386,3.452,7.719,3.602c0.577,0.274,1.172,0.505,1.845,0.505	c1.662,0,2.625-1.102,3.534-2.6c0,0,4.204-7.921,4.186-7.924C61.401,51.414,61.611,50.735,61.611,50z"></path><path fill="#355ca8" d="M55.745,61.452c-0.157,0.081-0.329,0.135-0.518,0.135c-0.556,0-0.974-0.448-1.163-0.881L53.17,58.63	c-0.248-0.597-0.391-1.248-0.391-1.932c0-1.031,0.317-1.987,0.851-2.79l5.243-8.591c0.198-0.312,0.481-0.549,0.863-0.549	c0.27,0,0.514,0.111,0.69,0.289l1.371,4.699l-0.622,2.457L55.745,61.452z"></path><path fill="#649ed8" d="M56.851,41.573c0.831,0.352,1.414,1.174,1.414,2.134c0,0.558-0.206,0.994-0.502,1.474l-4.795,7.945	c-0.545,0.902-1.526,1.511-2.657,1.511c-0.478,0-0.926-0.116-1.331-0.309l-8.701-3.853l0.002-0.004	c-0.739-0.345-1.255-1.089-1.255-1.958c0-0.448,0.136-0.865,0.37-1.211l5.923-8.813l2.818-0.438L56.851,41.573z"></path><path fill="#3678ba" d="M52.335,62.354c0.563,0,0.934-0.615,0.681-1.113c0,0-1.295-3.017-1.383-3.212	c-0.003-0.006-0.112-0.261-0.121-0.283c-0.167-0.382-0.417-0.735-0.702-1.038c-0.329-0.349-0.714-0.641-1.144-0.852	c0,0-8.948-4.292-9.349-4.48c-0.13-0.069-0.272-0.117-0.429-0.117c-0.517,0-0.937,0.419-0.937,0.937	c0,0.174,0.048,0.338,0.131,0.478l1.898,3.793l6.154,3.529L52.335,62.354z"></path><path fill="none" stroke="#472b29" stroke-linecap="round" stroke-linejoin="round" stroke-miterlimit="10" stroke-width=".25" d="M44.957,52.546l4.024,1.782c0.405,0.193,0.853,0.309,1.331,0.309c1.131,0,2.112-0.609,2.657-1.511l4.795-7.945	c0.296-0.48,0.502-0.916,0.502-1.474c0-0.959-0.583-1.782-1.414-2.134"></path><line x1="43.44" x2="44.387" y1="51.874" y2="52.294" fill="none" stroke="#472b29" stroke-linecap="round" stroke-linejoin="round" stroke-miterlimit="10" stroke-width=".25"></line><path fill="none" stroke="#472b29" stroke-linecap="round" stroke-linejoin="round" stroke-miterlimit="10" stroke-width=".25" d="M39.396,47.302c-0.233,0.346-0.37,0.762-0.37,1.211c0,0.869,0.515,1.614,1.255,1.958l-0.002,0.004l2.235,0.99"></path><path fill="none" stroke="#472b29" stroke-linecap="round" stroke-linejoin="round" stroke-miterlimit="10" stroke-width=".25" d="M52.335,62.354c0.563,0,0.934-0.615,0.681-1.113c0,0-1.295-3.017-1.383-3.212c-0.003-0.006-0.112-0.261-0.121-0.283	c-0.167-0.382-0.417-0.735-0.702-1.038c-0.329-0.349-0.714-0.641-1.144-0.852c0,0-8.948-4.292-9.349-4.48	c-0.13-0.069-0.272-0.117-0.429-0.117c-0.517,0-0.937,0.419-0.937,0.937c0,0.174,0.048,0.338,0.131,0.478"></path><path fill="none" stroke="#472b29" stroke-linecap="round" stroke-linejoin="round" stroke-miterlimit="10" stroke-width=".25" d="M57.289,47.914l-3.658,5.995c-0.534,0.803-0.851,1.759-0.851,2.79c0,0.685,0.142,1.336,0.391,1.932l0.893,2.075	c0.188,0.433,0.606,0.881,1.163,0.881c0.19,0,0.362-0.054,0.518-0.135"></path><path fill="none" stroke="#472b29" stroke-linecap="round" stroke-linejoin="round" stroke-miterlimit="10" stroke-width=".25" d="M60.426,45.056c-0.175-0.178-0.42-0.289-0.69-0.289c-0.383,0-0.665,0.237-0.863,0.549l-1.058,1.734"></path><ellipse cx="47.687" cy="41.545" fill="#fefdef" stroke="#472b29" stroke-linecap="round" stroke-linejoin="round" stroke-miterlimit="10" stroke-width=".25" rx="1.493" ry="1.774" transform="rotate(-67.883 47.685 41.546)"></ellipse><ellipse cx="45.523" cy="44.653" fill="#fefdef" stroke="#472b29" stroke-linecap="round" stroke-linejoin="round" stroke-miterlimit="10" stroke-width=".25" rx="1.493" ry="1.774" transform="rotate(-67.883 45.52 44.653)"></ellipse><ellipse cx="43.44" cy="47.794" fill="#fefdef" stroke="#472b29" stroke-linecap="round" stroke-linejoin="round" stroke-miterlimit="10" stroke-width=".25" rx="1.493" ry="1.774" transform="rotate(-67.883 43.437 47.794)"></ellipse><ellipse cx="54.065" cy="44.302" fill="#fefdef" stroke="#472b29" stroke-linecap="round" stroke-linejoin="round" stroke-miterlimit="10" stroke-width=".25" rx="1.493" ry="1.774" transform="rotate(-67.883 54.063 44.303)"></ellipse><ellipse cx="51.959" cy="47.269" fill="#fefdef" stroke="#472b29" stroke-linecap="round" stroke-linejoin="round" stroke-miterlimit="10" stroke-width=".25" rx="1.493" ry="1.774" transform="rotate(-67.883 51.956 47.27)"></ellipse><ellipse cx="49.876" cy="50.409" fill="#fefdef" stroke="#472b29" stroke-linecap="round" stroke-linejoin="round" stroke-miterlimit="10" stroke-width=".25" rx="1.493" ry="1.774" transform="rotate(-67.883 49.873 50.41)"></ellipse><ellipse cx="48.549" cy="56.466" fill="#fefdef" stroke="#472b29" stroke-linecap="round" stroke-linejoin="round" stroke-miterlimit="10" stroke-width=".25" rx=".558" ry="1.388" transform="rotate(-60 48.549 56.468)"></ellipse><ellipse cx="43.643" cy="57.063" fill="#fefdef" stroke="#472b29" stroke-linecap="round" stroke-linejoin="round" stroke-miterlimit="10" stroke-width=".25" rx=".558" ry="1.388" transform="rotate(-60 43.643 57.065)"></ellipse><ellipse cx="57.499" cy="53.222" fill="#fefdef" stroke="#472b29" stroke-linecap="round" stroke-linejoin="round" stroke-miterlimit="10" stroke-width=".25" rx="1.399" ry=".649" transform="rotate(-66.334 57.497 53.222)"></ellipse><path fill="none" stroke="#472b29" stroke-linecap="round" stroke-linejoin="round" stroke-miterlimit="10" d="M61.611,50	c0-0.405-0.077-0.788-0.168-1.163c0,0-1.01-3.949-1.011-3.953c-0.298-1.166-1.065-2.245-2.205-2.722c0,0-9.149-3.824-9.15-3.825	c-0.485-0.203-1.016-0.347-1.544-0.347c-1.327,0-2.481,0.704-3.146,1.75c0,0-5.532,8.441-5.539,8.452c0,0-0.057,0.087-0.048,0.088	c-0.363,0.572-0.581,1.247-0.581,1.975c0,0.865,0.373,1.603,0.797,2.294c0,0,1.668,3.135,1.686,3.133	c0.078,0.137,0.218,0.374,0.462,0.691c0.685,0.891,1.596,1.578,2.614,2.054c2.392,1.119,7.386,3.452,7.719,3.602	c0.577,0.274,1.172,0.505,1.845,0.505c1.662,0,2.625-1.102,3.534-2.6c0,0,4.204-7.921,4.186-7.924	C61.401,51.414,61.611,50.735,61.611,50z"></path>
</svg>